<svg id="Capa_1" data-name="Capa 1" xmlns="http://www.w3.org/2000/svg" viewBox="0 0 65.23 30.65"><defs><style>.cls-1{fill:red;}</style></defs><title>Logo propio</title><path d="M107.1,82.86c-.53,0-.91-.37-.91-1.23a5.9,5.9,0,0,1,.32-1.71c1.18-3.69,2.3-7.44,3.59-11.08a11.7,11.7,0,0,1,2.14-3.05,1.39,1.39,0,0,1,1.07-.53,1,1,0,0,1,1,1.07,2.66,2.66,0,0,1-.16.86c-.54,1.28-1.12,2.51-1.82,4a3.22,3.22,0,0,0,1.28-1c2.57-2.78,7.76-7.44,11.45-8.67a2,2,0,0,1,.75-.11,1.42,1.42,0,0,1,1.5,1.55v.32c-.21,2.25-2.25,6.37-3.11,8.83a40,40,0,0,0-1.28,4.5,1.9,1.9,0,0,0-.11.59c0,.32.05.7.05,1.18.8-.59,1.39-.91,1.87-1.34,1.34-1.28,4.87-5,6-5.89a2,2,0,0,1,1.12-.48c.64,0,1.07.48,1.23,1.44.32,2.19-.21,5.19,2.19,6.53a5.35,5.35,0,0,0,2.52.64c2.84,0,5.89-1.93,8-3.64a67.17,67.17,0,0,0,6.32-6.1,1.19,1.19,0,0,1,.27.21,44.72,44.72,0,0,1-6.42,6.32C143.77,78,140.62,80,137.56,80a6.39,6.39,0,0,1-2.62-.54c-2.73-1.28-2.84-5-3.11-7.65-1.55.86-5.51,6.53-7.92,7.65a2.09,2.09,0,0,1-1,.22,1.55,1.55,0,0,1-1.55-1.55,5.7,5.7,0,0,1-.05-1,7.66,7.66,0,0,1,.21-1.93c1-3.53,2.41-7,3.64-10.38a3.31,3.31,0,0,0,.11-.8,2.36,2.36,0,0,0-.05-.59c-.64.43-1.34.8-2,1.29a46.5,46.5,0,0,0-9.9,10.33c-1.55,2-2.84,4.23-4.28,6.32A2.9,2.9,0,0,1,107.1,82.86Z" transform="translate(-106.2 -53.34)"/><path class="cls-1" d="M119.09,56.48a.47.47,0,0,0,.1-.26c0-.12-.08-.18-.08-.28s0-.12.12-.24a17.94,17.94,0,0,1,1.88-2.24.65.65,0,0,1,.36-.12.6.6,0,0,1,.58.64v.1a1.26,1.26,0,0,1-.24.56c-.4.62-.8,1.24-1.18,1.88a102.06,102.06,0,0,0-5.51,10,.35.35,0,0,0-.08.2s0,0,0,.08a45.86,45.86,0,0,1,6.45-7.33c1.34-1.24,5-4.41,7.13-4.43h0a2.41,2.41,0,0,1,2.2,2.44,5.14,5.14,0,0,1,0,.56,11.68,11.68,0,0,1-2,5.77,25.44,25.44,0,0,1-9.9,8.95,17.16,17.16,0,0,1-7.35,1.92.54.54,0,0,0-.3.06.3.3,0,0,0-.1.22.27.27,0,0,0,.16.26c3,2,7.65,5.09,11.26,5.81a9.13,9.13,0,0,0,1.8.2c.26,0,.52,0,.78,0l.3,0c.14,0,.26,0,.28.16v0c0,.22-.42.22-.72.24s-.56,0-.82,0a12.31,12.31,0,0,1-4.37-.9,42.13,42.13,0,0,1-7.13-3.65L111.13,76a.62.62,0,0,0-.22-.1c-.06,0-.08.06-.16.22-.92,2.18-1.82,4.35-2.54,6.59a1.16,1.16,0,0,0-.1.32.28.28,0,0,0,.12.24.1.1,0,0,1,0,.08c0,.18-.28.6-.5.6l-.06,0a.32.32,0,0,1-.18-.34,2.66,2.66,0,0,1,.06-.44c.4-1.72,1.9-5.67,2.54-7.35a1.63,1.63,0,0,0,.08-.28c0-.08-.08-.14-.24-.24a13.93,13.93,0,0,0-2.34-1.26,3.15,3.15,0,0,1-1.36-.76.52.52,0,0,1-.08-.3.46.46,0,0,1,.48-.5,1.34,1.34,0,0,1,.76.32,5.84,5.84,0,0,0,3.08,1l.22,0c.18,0,.2-.08.32-.34A116.33,116.33,0,0,1,119.09,56.48Zm-5.21,12.84c-.32.48-1.62,3.46-1.94,4.13a.76.76,0,0,0-.1.3v.06a1.49,1.49,0,0,0,.3,0,3.32,3.32,0,0,0,.44,0,16.64,16.64,0,0,0,6-1.66,24.74,24.74,0,0,0,9.76-8.77,11.83,11.83,0,0,0,1.72-4.29,5.46,5.46,0,0,0,.12-1.14,3.35,3.35,0,0,0-.16-1.08c-.32-.9-.86-1.22-1.46-1.22a5.32,5.32,0,0,0-2.46,1C121.39,59.57,116.9,64.74,113.88,69.32Z" transform="translate(-106.2 -53.34)"/><path class="cls-1" d="M127.15,76.64a.83.83,0,0,1-.7-.64,2.65,2.65,0,0,1-.08-.68,1.8,1.8,0,0,1,0-.34,6.9,6.9,0,0,1,2.1-3.77,1.45,1.45,0,0,1,.9-.32.9.9,0,0,1,.94,1,2.16,2.16,0,0,1,0,.36c0,.18-.14.6-.2.84a3.89,3.89,0,0,0,1.48.26,9.52,9.52,0,0,0,3.73-.92l.16,0c.06,0,.1,0,.1.06s-.06.12-.22.18a10.89,10.89,0,0,1-3.61.92l-.42,0a2.92,2.92,0,0,1-1.34-.24,6.86,6.86,0,0,1-2.24,3.09,1,1,0,0,1-.56.22Zm-.26-.72c0,.18,0,.32.18.32a.8.8,0,0,0,.34-.16,8.35,8.35,0,0,0,2.1-3,2,2,0,0,1-.56-.9,8.64,8.64,0,0,0-2,3.45A1.65,1.65,0,0,0,126.89,75.93Zm2.46-4a1.09,1.09,0,0,0,.32.68,3.26,3.26,0,0,0,.22-.9.25.25,0,0,0-.22-.12.3.3,0,0,0-.32.26Z" transform="translate(-106.2 -53.34)"/><path class="cls-1" d="M134.35,77.24c-.2,0-.34-.14-.34-.46a2.2,2.2,0,0,1,.12-.64c.44-1.38.86-2.78,1.34-4.13a4.36,4.36,0,0,1,.8-1.14.52.52,0,0,1,.4-.2.37.37,0,0,1,.38.4,1,1,0,0,1-.06.32c-.2.48-.42.94-.68,1.5a1.2,1.2,0,0,0,.48-.36,13.54,13.54,0,0,1,4.27-3.23.73.73,0,0,1,.28,0,.53.53,0,0,1,.56.58V70a20.36,20.36,0,0,1-1.16,3.29,14.92,14.92,0,0,0-.48,1.68.71.71,0,0,0,0,.22c0,.12,0,.26,0,.44.3-.22.52-.34.7-.5.5-.48,1.82-1.86,2.26-2.2a.74.74,0,0,1,.42-.18c.24,0,.4.18.46.54.12.82-.08,1.94.82,2.44a2,2,0,0,0,.94.24,5.36,5.36,0,0,0,3-1.36,25.06,25.06,0,0,0,2.36-2.28.44.44,0,0,1,.1.08,16.68,16.68,0,0,1-2.4,2.36,5.43,5.43,0,0,1-3.18,1.46,2.38,2.38,0,0,1-1-.2c-1-.48-1.06-1.88-1.16-2.86-.58.32-2.06,2.44-3,2.86a.78.78,0,0,1-.36.08.58.58,0,0,1-.58-.58,2.13,2.13,0,0,1,0-.36,2.86,2.86,0,0,1,.08-.72c.38-1.32.9-2.6,1.36-3.87a1.24,1.24,0,0,0,0-.3.88.88,0,0,0,0-.22c-.24.16-.5.3-.74.48a17.35,17.35,0,0,0-3.69,3.85c-.58.76-1.06,1.58-1.6,2.36A1.08,1.08,0,0,1,134.35,77.24Z" transform="translate(-106.2 -53.34)"/><path class="cls-1" d="M150.59,74.65a.49.49,0,0,1-.5-.46.57.57,0,0,1,0-.18c.08-.24.16-.46.26-.7a5.62,5.62,0,0,1,1.34-1.74,1.73,1.73,0,0,1,1.12-.42,1.27,1.27,0,0,1,1.1.54l0,0c.08,0,.18-.12.28-.14l.08,0c.16,0,.24.18.24.36a.4.4,0,0,1,0,.16,10.63,10.63,0,0,0-1,2.72.47.47,0,0,0,.52.54h0c2.72,0,6.21-2.9,6.51-3h0s0,0,0,0a.06.06,0,0,1,0,0c-1.26,1.28-4.63,3.22-6.41,3.29h-.12a.94.94,0,0,1-1-1.06,3.87,3.87,0,0,1,.42-1.6,17.19,17.19,0,0,1-2.74,1.62A.43.43,0,0,1,150.59,74.65Zm.62-1c0,.06,0,.08,0,.08l.1,0a9.37,9.37,0,0,0,2-1.46.51.51,0,0,0-.44-.28.55.55,0,0,0-.28.08,4.09,4.09,0,0,0-1.3,1.32A.73.73,0,0,0,151.21,73.63Zm2.06-3.73c.52-.38,1-.8,1.56-1.12a.53.53,0,0,1,.3-.14h0c.06,0,.14.1.16.18s0,0,0,0,0,.08-.06.12-.1.06-.16.08c-.56.38-1.14.72-1.7,1.08a.36.36,0,0,1-.18.08.09.09,0,0,1-.1-.1.07.07,0,0,1,0-.06A.48.48,0,0,1,153.26,69.9Z" transform="translate(-106.2 -53.34)"/><path class="cls-1" d="M159,75.65a2.14,2.14,0,0,1,.2-.76,16.77,16.77,0,0,1,2.2-3.79c.28-.38.52-.52.7-.52a.46.46,0,0,1,.32.58A29.27,29.27,0,0,1,160.92,74a.86.86,0,0,0-.16.54c.86-.74,3.07-2.76,3.75-3.17a.8.8,0,0,1,.42-.14c.28,0,.44.22.46.62v.08c0,.38-.06,1-.06,1.68s.1,1.54.5,1.76a1.69,1.69,0,0,0,.76.18c2,0,4.55-3.21,4.81-3.21h0v0a.26.26,0,0,1-.06.16c-1,1.14-3.17,3.36-5,3.36a1.74,1.74,0,0,1-.84-.2c-.68-.34-.78-1.18-.78-2,0-.36,0-.72,0-1s0-.56,0-.94c-.22.18-.36.26-.5.38-1.22,1.14-2.46,2.28-3.67,3.39-.34.32-.72.78-1.12.78a.59.59,0,0,1-.3-.1A.63.63,0,0,1,159,75.65Z" transform="translate(-106.2 -53.34)"/></svg>